<mxfile host="app.diagrams.net" agent="Mozilla/5.0 (Macintosh; Intel Mac OS X 10_15_7) AppleWebKit/537.36 (KHTML, like Gecko) Chrome/131.0.0.0 Safari/537.36" version="26.0.8">
  <diagram name="페이지-1" id="2BVbqMhdBLBeodlYeCQW">
    <mxGraphModel dx="2314" dy="1121" grid="1" gridSize="10" guides="1" tooltips="1" connect="1" arrows="1" fold="1" page="1" pageScale="1" pageWidth="827" pageHeight="1169" math="0" shadow="0">
      <root>
        <mxCell id="0" />
        <mxCell id="1" parent="0" />
        <mxCell id="XTlqyo5tHkv6LKNm7WAt-1" value="" style="rounded=1;whiteSpace=wrap;html=1;fillColor=#dae8fc;strokeColor=#6c8ebf;" vertex="1" parent="1">
          <mxGeometry x="50" y="95" width="570" height="245" as="geometry" />
        </mxCell>
        <mxCell id="XTlqyo5tHkv6LKNm7WAt-2" value="" style="rounded=1;whiteSpace=wrap;html=1;" vertex="1" parent="1">
          <mxGeometry x="70" y="110" width="250" height="200" as="geometry" />
        </mxCell>
        <mxCell id="XTlqyo5tHkv6LKNm7WAt-3" value="Trigger&amp;nbsp;&lt;div&gt;MA_FT_TEMP_LOG_TRIGGER&lt;/div&gt;&lt;div&gt;MA_AT_TEMP_LOG_TRIGGER&lt;/div&gt;" style="rounded=1;whiteSpace=wrap;html=1;" vertex="1" parent="1">
          <mxGeometry x="370" y="215" width="230" height="95" as="geometry" />
        </mxCell>
        <mxCell id="XTlqyo5tHkv6LKNm7WAt-4" value="&lt;h3&gt;&lt;span style=&quot;color: rgb(0, 0, 0); font-family: Helvetica; font-style: normal; font-variant-ligatures: normal; font-variant-caps: normal; font-weight: 400; letter-spacing: normal; orphans: 2; text-align: center; text-indent: 0px; text-transform: none; widows: 2; word-spacing: 0px; -webkit-text-stroke-width: 0px; white-space: normal; background-color: rgb(251, 251, 251); text-decoration-thickness: initial; text-decoration-style: initial; text-decoration-color: initial; float: none; display: inline !important;&quot;&gt;&lt;font style=&quot;font-size: 18px;&quot;&gt;Maria DB&lt;/font&gt;&lt;/span&gt;&lt;/h3&gt;" style="text;html=1;align=center;verticalAlign=middle;whiteSpace=wrap;rounded=0;" vertex="1" parent="1">
          <mxGeometry x="265" y="60" width="140" height="35" as="geometry" />
        </mxCell>
        <mxCell id="XTlqyo5tHkv6LKNm7WAt-5" value="&lt;br style=&quot;forced-color-adjust: none; color: rgb(0, 0, 0); font-family: Helvetica; font-size: 12px; font-style: normal; font-variant-ligatures: normal; font-variant-caps: normal; font-weight: 400; letter-spacing: normal; orphans: 2; text-align: center; text-indent: 0px; text-transform: none; widows: 2; word-spacing: 0px; -webkit-text-stroke-width: 0px; white-space: normal; background-color: rgb(251, 251, 251); text-decoration-thickness: initial; text-decoration-style: initial; text-decoration-color: initial;&quot;&gt;&lt;div style=&quot;forced-color-adjust: none; color: rgb(0, 0, 0); font-family: Helvetica; font-size: 12px; font-style: normal; font-variant-ligatures: normal; font-variant-caps: normal; font-weight: 400; letter-spacing: normal; orphans: 2; text-align: center; text-indent: 0px; text-transform: none; widows: 2; word-spacing: 0px; -webkit-text-stroke-width: 0px; white-space: normal; background-color: rgb(251, 251, 251); text-decoration-thickness: initial; text-decoration-style: initial; text-decoration-color: initial;&quot;&gt;imc.IMC_FT_BIZ_MSG_LOG&lt;/div&gt;&lt;div style=&quot;forced-color-adjust: none; color: rgb(0, 0, 0); font-family: Helvetica; font-size: 12px; font-style: normal; font-variant-ligatures: normal; font-variant-caps: normal; font-weight: 400; letter-spacing: normal; orphans: 2; text-align: center; text-indent: 0px; text-transform: none; widows: 2; word-spacing: 0px; -webkit-text-stroke-width: 0px; white-space: normal; background-color: rgb(251, 251, 251); text-decoration-thickness: initial; text-decoration-style: initial; text-decoration-color: initial;&quot;&gt;imc.IMC_AT_BIZ_MSG_LOG&lt;/div&gt;" style="rounded=1;whiteSpace=wrap;html=1;" vertex="1" parent="1">
          <mxGeometry x="90" y="220" width="210" height="60" as="geometry" />
        </mxCell>
        <mxCell id="XTlqyo5tHkv6LKNm7WAt-6" value="&lt;span style=&quot;color: rgb(0, 0, 0); font-family: Helvetica; font-size: 12px; font-style: normal; font-variant-ligatures: normal; font-variant-caps: normal; font-weight: 400; letter-spacing: normal; orphans: 2; text-align: center; text-indent: 0px; text-transform: none; widows: 2; word-spacing: 0px; -webkit-text-stroke-width: 0px; white-space: normal; background-color: rgb(251, 251, 251); text-decoration-thickness: initial; text-decoration-style: initial; text-decoration-color: initial; float: none; display: inline !important;&quot;&gt;imc.IMC_FT_BIZ_MSG&lt;/span&gt;&lt;div&gt;&lt;span style=&quot;color: rgb(0, 0, 0); font-family: Helvetica; font-size: 12px; font-style: normal; font-variant-ligatures: normal; font-variant-caps: normal; font-weight: 400; letter-spacing: normal; orphans: 2; text-align: center; text-indent: 0px; text-transform: none; widows: 2; word-spacing: 0px; -webkit-text-stroke-width: 0px; white-space: normal; background-color: rgb(251, 251, 251); text-decoration-thickness: initial; text-decoration-style: initial; text-decoration-color: initial; float: none; display: inline !important;&quot;&gt;imc.IMC_AT_BIZ_MSG&lt;/span&gt;&lt;/div&gt;" style="rounded=1;whiteSpace=wrap;html=1;" vertex="1" parent="1">
          <mxGeometry x="90" y="130" width="210" height="60" as="geometry" />
        </mxCell>
        <mxCell id="XTlqyo5tHkv6LKNm7WAt-7" value="" style="endArrow=classic;html=1;rounded=0;exitX=0.5;exitY=1;exitDx=0;exitDy=0;entryX=0.5;entryY=0;entryDx=0;entryDy=0;" edge="1" parent="1" source="XTlqyo5tHkv6LKNm7WAt-6" target="XTlqyo5tHkv6LKNm7WAt-5">
          <mxGeometry width="50" height="50" relative="1" as="geometry">
            <mxPoint x="400" y="340" as="sourcePoint" />
            <mxPoint x="450" y="290" as="targetPoint" />
          </mxGeometry>
        </mxCell>
        <mxCell id="XTlqyo5tHkv6LKNm7WAt-8" value="&lt;font style=&quot;font-size: 12px;&quot;&gt;IMC_AGENT&lt;/font&gt;" style="text;strokeColor=none;fillColor=none;html=1;fontSize=24;fontStyle=1;verticalAlign=middle;align=center;" vertex="1" parent="1">
          <mxGeometry x="145" y="100" width="100" height="30" as="geometry" />
        </mxCell>
        <mxCell id="XTlqyo5tHkv6LKNm7WAt-9" value="MA_FT_TEMP_LOG&lt;div&gt;MA_AT_TEMP_LOG&lt;/div&gt;" style="shape=cylinder3;whiteSpace=wrap;html=1;boundedLbl=1;backgroundOutline=1;size=15;" vertex="1" parent="1">
          <mxGeometry x="413" y="130" width="130" height="70" as="geometry" />
        </mxCell>
        <mxCell id="XTlqyo5tHkv6LKNm7WAt-10" value="" style="rounded=1;whiteSpace=wrap;html=1;fillColor=#fff2cc;strokeColor=#d6b656;" vertex="1" parent="1">
          <mxGeometry x="790" y="99" width="310" height="241" as="geometry" />
        </mxCell>
        <mxCell id="XTlqyo5tHkv6LKNm7WAt-11" value="&lt;font style=&quot;font-size: 18px;&quot;&gt;Logstash_5.1.2&lt;/font&gt;" style="text;html=1;align=center;verticalAlign=middle;whiteSpace=wrap;rounded=0;" vertex="1" parent="1">
          <mxGeometry x="875" y="60" width="140" height="35" as="geometry" />
        </mxCell>
        <mxCell id="XTlqyo5tHkv6LKNm7WAt-12" value="" style="endArrow=classic;html=1;rounded=0;exitX=1;exitY=0.5;exitDx=0;exitDy=0;entryX=-0.013;entryY=0.372;entryDx=0;entryDy=0;entryPerimeter=0;" edge="1" parent="1" source="XTlqyo5tHkv6LKNm7WAt-5" target="XTlqyo5tHkv6LKNm7WAt-3">
          <mxGeometry width="50" height="50" relative="1" as="geometry">
            <mxPoint x="700" y="300" as="sourcePoint" />
            <mxPoint x="750" y="250" as="targetPoint" />
          </mxGeometry>
        </mxCell>
        <mxCell id="XTlqyo5tHkv6LKNm7WAt-13" value="Produce to&amp;nbsp;&lt;div&gt;imc-send-ver5, imc-send-ver6&lt;/div&gt;" style="rounded=1;whiteSpace=wrap;html=1;" vertex="1" parent="1">
          <mxGeometry x="840" y="135" width="210" height="55" as="geometry" />
        </mxCell>
        <mxCell id="XTlqyo5tHkv6LKNm7WAt-14" value="" style="rounded=1;whiteSpace=wrap;html=1;fillColor=#f5f5f5;fontColor=#333333;strokeColor=#666666;" vertex="1" parent="1">
          <mxGeometry x="1260" y="100" width="310" height="245" as="geometry" />
        </mxCell>
        <mxCell id="XTlqyo5tHkv6LKNm7WAt-15" value="&lt;font style=&quot;font-size: 18px;&quot;&gt;Kafka(29,30,31)&lt;/font&gt;" style="text;html=1;align=center;verticalAlign=middle;whiteSpace=wrap;rounded=0;" vertex="1" parent="1">
          <mxGeometry x="1345" y="60" width="140" height="35" as="geometry" />
        </mxCell>
        <mxCell id="XTlqyo5tHkv6LKNm7WAt-16" value="imc-send-ver5" style="rounded=1;whiteSpace=wrap;html=1;" vertex="1" parent="1">
          <mxGeometry x="1310" y="129" width="210" height="65" as="geometry" />
        </mxCell>
        <mxCell id="XTlqyo5tHkv6LKNm7WAt-17" value="Topic" style="text;html=1;align=center;verticalAlign=middle;whiteSpace=wrap;rounded=0;" vertex="1" parent="1">
          <mxGeometry x="1385" y="105" width="60" height="30" as="geometry" />
        </mxCell>
        <mxCell id="XTlqyo5tHkv6LKNm7WAt-18" value="" style="endArrow=classic;html=1;rounded=0;exitX=1;exitY=0.5;exitDx=0;exitDy=0;exitPerimeter=0;" edge="1" parent="1" source="XTlqyo5tHkv6LKNm7WAt-9" target="XTlqyo5tHkv6LKNm7WAt-13">
          <mxGeometry width="50" height="50" relative="1" as="geometry">
            <mxPoint x="970" y="300" as="sourcePoint" />
            <mxPoint x="1020" y="250" as="targetPoint" />
          </mxGeometry>
        </mxCell>
        <mxCell id="XTlqyo5tHkv6LKNm7WAt-19" value="&lt;meta charset=&quot;utf-8&quot;&gt;&lt;span style=&quot;color: rgb(0, 0, 0); font-family: Helvetica; font-size: 12px; font-style: normal; font-variant-ligatures: normal; font-variant-caps: normal; font-weight: 400; letter-spacing: normal; orphans: 2; text-align: center; text-indent: 0px; text-transform: none; widows: 2; word-spacing: 0px; -webkit-text-stroke-width: 0px; white-space: normal; background-color: rgb(251, 251, 251); text-decoration-thickness: initial; text-decoration-style: initial; text-decoration-color: initial; display: inline !important; float: none;&quot;&gt;&amp;nbsp;schedule =&amp;gt; &quot;*/3 * * * *&quot;&lt;/span&gt;" style="text;strokeColor=none;fillColor=none;align=left;verticalAlign=middle;spacingLeft=4;spacingRight=4;overflow=hidden;points=[[0,0.5],[1,0.5]];portConstraint=eastwest;rotatable=0;whiteSpace=wrap;html=1;" vertex="1" parent="1">
          <mxGeometry x="630" y="135" width="160" height="35" as="geometry" />
        </mxCell>
        <mxCell id="XTlqyo5tHkv6LKNm7WAt-20" value="" style="endArrow=classic;html=1;rounded=0;exitX=1;exitY=0.5;exitDx=0;exitDy=0;exitPerimeter=0;entryX=0;entryY=0.5;entryDx=0;entryDy=0;" edge="1" parent="1" target="XTlqyo5tHkv6LKNm7WAt-16">
          <mxGeometry width="50" height="50" relative="1" as="geometry">
            <mxPoint x="1050" y="161" as="sourcePoint" />
            <mxPoint x="1347" y="159" as="targetPoint" />
          </mxGeometry>
        </mxCell>
        <mxCell id="XTlqyo5tHkv6LKNm7WAt-21" value="imc-send-ver6" style="rounded=1;whiteSpace=wrap;html=1;" vertex="1" parent="1">
          <mxGeometry x="1310" y="215" width="210" height="65" as="geometry" />
        </mxCell>
        <mxCell id="XTlqyo5tHkv6LKNm7WAt-22" value="" style="endArrow=classic;html=1;rounded=0;exitX=1;exitY=0.5;exitDx=0;exitDy=0;entryX=0;entryY=0.5;entryDx=0;entryDy=0;" edge="1" parent="1" source="XTlqyo5tHkv6LKNm7WAt-13" target="XTlqyo5tHkv6LKNm7WAt-21">
          <mxGeometry width="50" height="50" relative="1" as="geometry">
            <mxPoint x="1060" y="171" as="sourcePoint" />
            <mxPoint x="1320" y="172" as="targetPoint" />
          </mxGeometry>
        </mxCell>
        <mxCell id="XTlqyo5tHkv6LKNm7WAt-23" value="/app/logstash-5.1.2/humuson/imc-send.conf" style="text;html=1;align=center;verticalAlign=middle;whiteSpace=wrap;rounded=0;" vertex="1" parent="1">
          <mxGeometry x="780" y="194" width="310" height="30" as="geometry" />
        </mxCell>
        <mxCell id="XTlqyo5tHkv6LKNm7WAt-24" value="" style="rounded=1;whiteSpace=wrap;html=1;fillColor=#d5e8d4;strokeColor=#82b366;" vertex="1" parent="1">
          <mxGeometry x="1750" y="99" width="300" height="241" as="geometry" />
        </mxCell>
        <mxCell id="XTlqyo5tHkv6LKNm7WAt-25" value="&lt;font style=&quot;font-size: 18px;&quot;&gt;tma-trk&lt;/font&gt;" style="text;html=1;align=center;verticalAlign=middle;whiteSpace=wrap;rounded=0;" vertex="1" parent="1">
          <mxGeometry x="1835" y="60" width="140" height="35" as="geometry" />
        </mxCell>
        <mxCell id="XTlqyo5tHkv6LKNm7WAt-26" value="imc-send-ver5 consumer&lt;div&gt;(Concurrency 20)&lt;/div&gt;" style="rounded=1;whiteSpace=wrap;html=1;" vertex="1" parent="1">
          <mxGeometry x="1800" y="149.5" width="210" height="65" as="geometry" />
        </mxCell>
        <mxCell id="XTlqyo5tHkv6LKNm7WAt-27" value="imc-send-ver6 consumer&lt;div&gt;(Concurrency 20)&lt;/div&gt;" style="rounded=1;whiteSpace=wrap;html=1;" vertex="1" parent="1">
          <mxGeometry x="1800" y="232" width="210" height="65" as="geometry" />
        </mxCell>
        <mxCell id="XTlqyo5tHkv6LKNm7WAt-28" value="&lt;font style=&quot;font-size: 18px;&quot;&gt;...&amp;nbsp;&lt;/font&gt;" style="text;html=1;align=center;verticalAlign=middle;whiteSpace=wrap;rounded=0;" vertex="1" parent="1">
          <mxGeometry x="1835" y="102.5" width="140" height="35" as="geometry" />
        </mxCell>
        <mxCell id="XTlqyo5tHkv6LKNm7WAt-29" value="" style="edgeStyle=segmentEdgeStyle;endArrow=classic;html=1;curved=0;rounded=0;endSize=8;startSize=8;entryX=0.5;entryY=1;entryDx=0;entryDy=0;exitX=0.5;exitY=1;exitDx=0;exitDy=0;" edge="1" parent="1" source="XTlqyo5tHkv6LKNm7WAt-27" target="XTlqyo5tHkv6LKNm7WAt-3">
          <mxGeometry width="50" height="50" relative="1" as="geometry">
            <mxPoint x="1689.4117647058824" y="420" as="sourcePoint" />
            <mxPoint x="450" y="320" as="targetPoint" />
            <Array as="points">
              <mxPoint x="1905" y="420" />
              <mxPoint x="485" y="420" />
            </Array>
          </mxGeometry>
        </mxCell>
        <mxCell id="XTlqyo5tHkv6LKNm7WAt-30" value="&lt;font style=&quot;font-size: 14px;&quot;&gt;DELETE data&lt;/font&gt;" style="text;html=1;align=center;verticalAlign=middle;whiteSpace=wrap;rounded=0;" vertex="1" parent="1">
          <mxGeometry x="415" y="370" width="140" height="30" as="geometry" />
        </mxCell>
        <mxCell id="XTlqyo5tHkv6LKNm7WAt-31" value="" style="endArrow=classic;html=1;rounded=0;exitX=1;exitY=0.5;exitDx=0;exitDy=0;exitPerimeter=0;entryX=0;entryY=0.5;entryDx=0;entryDy=0;" edge="1" parent="1" target="XTlqyo5tHkv6LKNm7WAt-26">
          <mxGeometry width="50" height="50" relative="1" as="geometry">
            <mxPoint x="1520" y="159.41" as="sourcePoint" />
            <mxPoint x="1780" y="160.41" as="targetPoint" />
          </mxGeometry>
        </mxCell>
        <mxCell id="XTlqyo5tHkv6LKNm7WAt-32" value="" style="endArrow=classic;html=1;rounded=0;exitX=1;exitY=0.5;exitDx=0;exitDy=0;exitPerimeter=0;entryX=0;entryY=0.5;entryDx=0;entryDy=0;" edge="1" parent="1" target="XTlqyo5tHkv6LKNm7WAt-27">
          <mxGeometry width="50" height="50" relative="1" as="geometry">
            <mxPoint x="1520" y="246.91" as="sourcePoint" />
            <mxPoint x="1780" y="247.91" as="targetPoint" />
          </mxGeometry>
        </mxCell>
        <mxCell id="XTlqyo5tHkv6LKNm7WAt-33" value="&lt;span style=&quot;color: rgb(0, 0, 0); font-family: Helvetica; font-style: normal; font-variant-ligatures: normal; font-variant-caps: normal; font-weight: 400; letter-spacing: normal; orphans: 2; text-align: center; text-indent: 0px; text-transform: none; widows: 2; word-spacing: 0px; -webkit-text-stroke-width: 0px; white-space: normal; background-color: rgb(251, 251, 251); text-decoration-thickness: initial; text-decoration-style: initial; text-decoration-color: initial; float: none; display: inline !important;&quot;&gt;&lt;font style=&quot;font-size: 10px;&quot;&gt;processImcSned(String message)&amp;nbsp;&lt;/font&gt;&lt;/span&gt;" style="text;html=1;align=center;verticalAlign=middle;whiteSpace=wrap;rounded=0;" vertex="1" parent="1">
          <mxGeometry x="1560" y="140" width="210" height="30" as="geometry" />
        </mxCell>
        <mxCell id="XTlqyo5tHkv6LKNm7WAt-34" value="&lt;span style=&quot;color: rgb(0, 0, 0); font-family: Helvetica; font-style: normal; font-variant-ligatures: normal; font-variant-caps: normal; font-weight: 400; letter-spacing: normal; orphans: 2; text-align: center; text-indent: 0px; text-transform: none; widows: 2; word-spacing: 0px; -webkit-text-stroke-width: 0px; white-space: normal; background-color: rgb(251, 251, 251); text-decoration-thickness: initial; text-decoration-style: initial; text-decoration-color: initial; float: none; display: inline !important;&quot;&gt;&lt;font style=&quot;font-size: 10px;&quot;&gt;processImcSned(String message)&amp;nbsp;&lt;/font&gt;&lt;/span&gt;" style="text;html=1;align=center;verticalAlign=middle;whiteSpace=wrap;rounded=0;" vertex="1" parent="1">
          <mxGeometry x="1560" y="224" width="210" height="30" as="geometry" />
        </mxCell>
        <mxCell id="XTlqyo5tHkv6LKNm7WAt-35" value="&lt;h3&gt;&lt;span style=&quot;color: rgb(0, 0, 0); font-family: Helvetica; font-style: normal; font-variant-ligatures: normal; font-variant-caps: normal; font-weight: 400; letter-spacing: normal; orphans: 2; text-align: center; text-indent: 0px; text-transform: none; widows: 2; word-spacing: 0px; -webkit-text-stroke-width: 0px; white-space: normal; background-color: rgb(251, 251, 251); text-decoration-thickness: initial; text-decoration-style: initial; text-decoration-color: initial; float: none; display: inline !important;&quot;&gt;&lt;font style=&quot;font-size: 18px;&quot;&gt;Maria DB&lt;/font&gt;&lt;/span&gt;&lt;/h3&gt;" style="text;html=1;align=center;verticalAlign=middle;whiteSpace=wrap;rounded=0;" vertex="1" parent="1">
          <mxGeometry x="2310" y="64" width="140" height="35" as="geometry" />
        </mxCell>
        <mxCell id="XTlqyo5tHkv6LKNm7WAt-36" value="" style="rounded=1;whiteSpace=wrap;html=1;fillColor=#dae8fc;strokeColor=#6c8ebf;" vertex="1" parent="1">
          <mxGeometry x="2240" y="97" width="290" height="245" as="geometry" />
        </mxCell>
        <mxCell id="XTlqyo5tHkv6LKNm7WAt-37" value="PROGRMA_MA_SCHD&lt;div&gt;PROGRMA_MA_SCHD_CHANNEL&lt;/div&gt;&lt;div&gt;PROGRAM_MA_TARGET_LIST&lt;/div&gt;" style="shape=cylinder3;whiteSpace=wrap;html=1;boundedLbl=1;backgroundOutline=1;size=15;" vertex="1" parent="1">
          <mxGeometry x="2281" y="137.5" width="200" height="130" as="geometry" />
        </mxCell>
        <mxCell id="XTlqyo5tHkv6LKNm7WAt-38" value="" style="endArrow=classic;html=1;rounded=0;exitX=1;exitY=0.5;exitDx=0;exitDy=0;entryX=0;entryY=0.5;entryDx=0;entryDy=0;entryPerimeter=0;" edge="1" parent="1" source="XTlqyo5tHkv6LKNm7WAt-26" target="XTlqyo5tHkv6LKNm7WAt-37">
          <mxGeometry width="50" height="50" relative="1" as="geometry">
            <mxPoint x="2009.0000000000005" y="174" as="sourcePoint" />
            <mxPoint x="2289.0000000000005" y="182.01999999999998" as="targetPoint" />
          </mxGeometry>
        </mxCell>
        <mxCell id="XTlqyo5tHkv6LKNm7WAt-39" value="" style="endArrow=classic;html=1;rounded=0;exitX=1;exitY=0.5;exitDx=0;exitDy=0;entryX=0;entryY=0.5;entryDx=0;entryDy=0;entryPerimeter=0;" edge="1" parent="1" target="XTlqyo5tHkv6LKNm7WAt-37">
          <mxGeometry width="50" height="50" relative="1" as="geometry">
            <mxPoint x="2010.0000000000005" y="264.75" as="sourcePoint" />
            <mxPoint x="2291" y="213.25" as="targetPoint" />
          </mxGeometry>
        </mxCell>
        <mxCell id="XTlqyo5tHkv6LKNm7WAt-40" value="UPDATE&amp;nbsp;&lt;div&gt;INSERT&lt;/div&gt;" style="text;html=1;align=center;verticalAlign=middle;whiteSpace=wrap;rounded=0;" vertex="1" parent="1">
          <mxGeometry x="2170" y="164" width="120" height="30" as="geometry" />
        </mxCell>
        <mxCell id="XTlqyo5tHkv6LKNm7WAt-41" value="&lt;h3&gt;&lt;span style=&quot;font-size: 18px; font-weight: 400;&quot;&gt;Redis&lt;/span&gt;&lt;/h3&gt;" style="text;html=1;align=center;verticalAlign=middle;whiteSpace=wrap;rounded=0;" vertex="1" parent="1">
          <mxGeometry x="2310" y="350" width="140" height="35" as="geometry" />
        </mxCell>
        <mxCell id="XTlqyo5tHkv6LKNm7WAt-42" value="" style="rounded=1;whiteSpace=wrap;html=1;fillColor=#f8cecc;strokeColor=#b85450;" vertex="1" parent="1">
          <mxGeometry x="2240" y="383" width="290" height="245" as="geometry" />
        </mxCell>
        <mxCell id="XTlqyo5tHkv6LKNm7WAt-43" value="&lt;br&gt;&lt;div&gt;frequency:&lt;span style=&quot;background-color: transparent; color: light-dark(rgb(0, 0, 0), rgb(255, 255, 255));&quot;&gt;{siteSeq}:{date}:{userid}&lt;/span&gt;&lt;/div&gt;&lt;div&gt;frequency_log:{siteSeq}:{date}:{userid}&lt;/div&gt;" style="shape=cylinder3;whiteSpace=wrap;html=1;boundedLbl=1;backgroundOutline=1;size=15;" vertex="1" parent="1">
          <mxGeometry x="2270.5" y="423.5" width="229" height="130" as="geometry" />
        </mxCell>
        <mxCell id="XTlqyo5tHkv6LKNm7WAt-45" value="&lt;font style=&quot;font-size: 13px;&quot;&gt;if an error occurs while sending,&amp;nbsp;&amp;nbsp;&lt;/font&gt;&lt;div&gt;&lt;font style=&quot;font-size: 13px;&quot;&gt;decrease the frequency&lt;/font&gt;&lt;/div&gt;" style="text;html=1;align=center;verticalAlign=middle;whiteSpace=wrap;rounded=0;" vertex="1" parent="1">
          <mxGeometry x="2050" y="370" width="220" height="30" as="geometry" />
        </mxCell>
        <mxCell id="XTlqyo5tHkv6LKNm7WAt-46" value="" style="rounded=1;whiteSpace=wrap;html=1;fillColor=#dae8fc;strokeColor=#6c8ebf;" vertex="1" parent="1">
          <mxGeometry x="50" y="95" width="570" height="245" as="geometry" />
        </mxCell>
        <mxCell id="XTlqyo5tHkv6LKNm7WAt-47" value="" style="rounded=1;whiteSpace=wrap;html=1;" vertex="1" parent="1">
          <mxGeometry x="70" y="110" width="250" height="200" as="geometry" />
        </mxCell>
        <mxCell id="XTlqyo5tHkv6LKNm7WAt-48" value="Trigger&amp;nbsp;&lt;div&gt;MA_FT_TEMP_LOG_TRIGGER&lt;/div&gt;&lt;div&gt;MA_AT_TEMP_LOG_TRIGGER&lt;/div&gt;" style="rounded=1;whiteSpace=wrap;html=1;" vertex="1" parent="1">
          <mxGeometry x="370" y="215" width="230" height="95" as="geometry" />
        </mxCell>
        <mxCell id="XTlqyo5tHkv6LKNm7WAt-49" value="&lt;h3&gt;&lt;span style=&quot;color: rgb(0, 0, 0); font-family: Helvetica; font-style: normal; font-variant-ligatures: normal; font-variant-caps: normal; font-weight: 400; letter-spacing: normal; orphans: 2; text-align: center; text-indent: 0px; text-transform: none; widows: 2; word-spacing: 0px; -webkit-text-stroke-width: 0px; white-space: normal; background-color: rgb(251, 251, 251); text-decoration-thickness: initial; text-decoration-style: initial; text-decoration-color: initial; float: none; display: inline !important;&quot;&gt;&lt;font style=&quot;font-size: 18px;&quot;&gt;Maria DB&lt;/font&gt;&lt;/span&gt;&lt;/h3&gt;" style="text;html=1;align=center;verticalAlign=middle;whiteSpace=wrap;rounded=0;" vertex="1" parent="1">
          <mxGeometry x="265" y="60" width="140" height="35" as="geometry" />
        </mxCell>
        <mxCell id="XTlqyo5tHkv6LKNm7WAt-50" value="&lt;br style=&quot;forced-color-adjust: none; color: rgb(0, 0, 0); font-family: Helvetica; font-size: 12px; font-style: normal; font-variant-ligatures: normal; font-variant-caps: normal; font-weight: 400; letter-spacing: normal; orphans: 2; text-align: center; text-indent: 0px; text-transform: none; widows: 2; word-spacing: 0px; -webkit-text-stroke-width: 0px; white-space: normal; background-color: rgb(251, 251, 251); text-decoration-thickness: initial; text-decoration-style: initial; text-decoration-color: initial;&quot;&gt;&lt;div style=&quot;forced-color-adjust: none; color: rgb(0, 0, 0); font-family: Helvetica; font-size: 12px; font-style: normal; font-variant-ligatures: normal; font-variant-caps: normal; font-weight: 400; letter-spacing: normal; orphans: 2; text-align: center; text-indent: 0px; text-transform: none; widows: 2; word-spacing: 0px; -webkit-text-stroke-width: 0px; white-space: normal; background-color: rgb(251, 251, 251); text-decoration-thickness: initial; text-decoration-style: initial; text-decoration-color: initial;&quot;&gt;imc.IMC_FT_BIZ_MSG_LOG&lt;/div&gt;&lt;div style=&quot;forced-color-adjust: none; color: rgb(0, 0, 0); font-family: Helvetica; font-size: 12px; font-style: normal; font-variant-ligatures: normal; font-variant-caps: normal; font-weight: 400; letter-spacing: normal; orphans: 2; text-align: center; text-indent: 0px; text-transform: none; widows: 2; word-spacing: 0px; -webkit-text-stroke-width: 0px; white-space: normal; background-color: rgb(251, 251, 251); text-decoration-thickness: initial; text-decoration-style: initial; text-decoration-color: initial;&quot;&gt;imc.IMC_AT_BIZ_MSG_LOG&lt;/div&gt;" style="rounded=1;whiteSpace=wrap;html=1;" vertex="1" parent="1">
          <mxGeometry x="90" y="220" width="210" height="60" as="geometry" />
        </mxCell>
        <mxCell id="XTlqyo5tHkv6LKNm7WAt-51" value="&lt;span style=&quot;color: rgb(0, 0, 0); font-family: Helvetica; font-size: 12px; font-style: normal; font-variant-ligatures: normal; font-variant-caps: normal; font-weight: 400; letter-spacing: normal; orphans: 2; text-align: center; text-indent: 0px; text-transform: none; widows: 2; word-spacing: 0px; -webkit-text-stroke-width: 0px; white-space: normal; background-color: rgb(251, 251, 251); text-decoration-thickness: initial; text-decoration-style: initial; text-decoration-color: initial; float: none; display: inline !important;&quot;&gt;imc.IMC_FT_BIZ_MSG&lt;/span&gt;&lt;div&gt;&lt;span style=&quot;color: rgb(0, 0, 0); font-family: Helvetica; font-size: 12px; font-style: normal; font-variant-ligatures: normal; font-variant-caps: normal; font-weight: 400; letter-spacing: normal; orphans: 2; text-align: center; text-indent: 0px; text-transform: none; widows: 2; word-spacing: 0px; -webkit-text-stroke-width: 0px; white-space: normal; background-color: rgb(251, 251, 251); text-decoration-thickness: initial; text-decoration-style: initial; text-decoration-color: initial; float: none; display: inline !important;&quot;&gt;imc.IMC_AT_BIZ_MSG&lt;/span&gt;&lt;/div&gt;" style="rounded=1;whiteSpace=wrap;html=1;" vertex="1" parent="1">
          <mxGeometry x="90" y="130" width="210" height="60" as="geometry" />
        </mxCell>
        <mxCell id="XTlqyo5tHkv6LKNm7WAt-52" value="" style="endArrow=classic;html=1;rounded=0;exitX=0.5;exitY=1;exitDx=0;exitDy=0;entryX=0.5;entryY=0;entryDx=0;entryDy=0;" edge="1" parent="1" source="XTlqyo5tHkv6LKNm7WAt-51" target="XTlqyo5tHkv6LKNm7WAt-50">
          <mxGeometry width="50" height="50" relative="1" as="geometry">
            <mxPoint x="400" y="340" as="sourcePoint" />
            <mxPoint x="450" y="290" as="targetPoint" />
          </mxGeometry>
        </mxCell>
        <mxCell id="XTlqyo5tHkv6LKNm7WAt-53" value="&lt;font style=&quot;font-size: 12px;&quot;&gt;IMC_AGENT&lt;/font&gt;" style="text;strokeColor=none;fillColor=none;html=1;fontSize=24;fontStyle=1;verticalAlign=middle;align=center;" vertex="1" parent="1">
          <mxGeometry x="145" y="100" width="100" height="30" as="geometry" />
        </mxCell>
        <mxCell id="XTlqyo5tHkv6LKNm7WAt-54" value="MA_FT_TEMP_LOG&lt;div&gt;MA_AT_TEMP_LOG&lt;/div&gt;" style="shape=cylinder3;whiteSpace=wrap;html=1;boundedLbl=1;backgroundOutline=1;size=15;" vertex="1" parent="1">
          <mxGeometry x="413" y="130" width="130" height="70" as="geometry" />
        </mxCell>
        <mxCell id="XTlqyo5tHkv6LKNm7WAt-55" value="" style="rounded=1;whiteSpace=wrap;html=1;fillColor=#fff2cc;strokeColor=#d6b656;" vertex="1" parent="1">
          <mxGeometry x="790" y="99" width="310" height="241" as="geometry" />
        </mxCell>
        <mxCell id="XTlqyo5tHkv6LKNm7WAt-56" value="&lt;font style=&quot;font-size: 18px;&quot;&gt;Logstash_5.1.2&lt;/font&gt;" style="text;html=1;align=center;verticalAlign=middle;whiteSpace=wrap;rounded=0;" vertex="1" parent="1">
          <mxGeometry x="875" y="60" width="140" height="35" as="geometry" />
        </mxCell>
        <mxCell id="XTlqyo5tHkv6LKNm7WAt-57" value="" style="endArrow=classic;html=1;rounded=0;exitX=1;exitY=0.5;exitDx=0;exitDy=0;entryX=-0.013;entryY=0.372;entryDx=0;entryDy=0;entryPerimeter=0;" edge="1" parent="1" source="XTlqyo5tHkv6LKNm7WAt-50" target="XTlqyo5tHkv6LKNm7WAt-48">
          <mxGeometry width="50" height="50" relative="1" as="geometry">
            <mxPoint x="700" y="300" as="sourcePoint" />
            <mxPoint x="750" y="250" as="targetPoint" />
          </mxGeometry>
        </mxCell>
        <mxCell id="XTlqyo5tHkv6LKNm7WAt-58" value="Produce to&amp;nbsp;&lt;div&gt;imc-send-ver5, imc-send-ver6&lt;/div&gt;" style="rounded=1;whiteSpace=wrap;html=1;" vertex="1" parent="1">
          <mxGeometry x="840" y="135" width="210" height="55" as="geometry" />
        </mxCell>
        <mxCell id="XTlqyo5tHkv6LKNm7WAt-59" value="" style="rounded=1;whiteSpace=wrap;html=1;fillColor=#f5f5f5;fontColor=#333333;strokeColor=#666666;" vertex="1" parent="1">
          <mxGeometry x="1260" y="100" width="310" height="245" as="geometry" />
        </mxCell>
        <mxCell id="XTlqyo5tHkv6LKNm7WAt-60" value="&lt;font style=&quot;font-size: 18px;&quot;&gt;Kafka(29,30,31)&lt;/font&gt;" style="text;html=1;align=center;verticalAlign=middle;whiteSpace=wrap;rounded=0;" vertex="1" parent="1">
          <mxGeometry x="1345" y="60" width="140" height="35" as="geometry" />
        </mxCell>
        <mxCell id="XTlqyo5tHkv6LKNm7WAt-61" value="imc-send-ver5" style="rounded=1;whiteSpace=wrap;html=1;" vertex="1" parent="1">
          <mxGeometry x="1310" y="129" width="210" height="65" as="geometry" />
        </mxCell>
        <mxCell id="XTlqyo5tHkv6LKNm7WAt-62" value="Topic" style="text;html=1;align=center;verticalAlign=middle;whiteSpace=wrap;rounded=0;" vertex="1" parent="1">
          <mxGeometry x="1385" y="105" width="60" height="30" as="geometry" />
        </mxCell>
        <mxCell id="XTlqyo5tHkv6LKNm7WAt-63" value="" style="endArrow=classic;html=1;rounded=0;exitX=1;exitY=0.5;exitDx=0;exitDy=0;exitPerimeter=0;" edge="1" parent="1" source="XTlqyo5tHkv6LKNm7WAt-54" target="XTlqyo5tHkv6LKNm7WAt-58">
          <mxGeometry width="50" height="50" relative="1" as="geometry">
            <mxPoint x="970" y="300" as="sourcePoint" />
            <mxPoint x="1020" y="250" as="targetPoint" />
          </mxGeometry>
        </mxCell>
        <mxCell id="XTlqyo5tHkv6LKNm7WAt-64" value="&lt;meta charset=&quot;utf-8&quot;&gt;&lt;span style=&quot;color: rgb(0, 0, 0); font-family: Helvetica; font-size: 12px; font-style: normal; font-variant-ligatures: normal; font-variant-caps: normal; font-weight: 400; letter-spacing: normal; orphans: 2; text-align: center; text-indent: 0px; text-transform: none; widows: 2; word-spacing: 0px; -webkit-text-stroke-width: 0px; white-space: normal; background-color: rgb(251, 251, 251); text-decoration-thickness: initial; text-decoration-style: initial; text-decoration-color: initial; display: inline !important; float: none;&quot;&gt;&amp;nbsp;schedule =&amp;gt; &quot;*/3 * * * *&quot;&lt;/span&gt;" style="text;strokeColor=none;fillColor=none;align=left;verticalAlign=middle;spacingLeft=4;spacingRight=4;overflow=hidden;points=[[0,0.5],[1,0.5]];portConstraint=eastwest;rotatable=0;whiteSpace=wrap;html=1;" vertex="1" parent="1">
          <mxGeometry x="630" y="135" width="160" height="35" as="geometry" />
        </mxCell>
        <mxCell id="XTlqyo5tHkv6LKNm7WAt-65" value="" style="endArrow=classic;html=1;rounded=0;exitX=1;exitY=0.5;exitDx=0;exitDy=0;exitPerimeter=0;entryX=0;entryY=0.5;entryDx=0;entryDy=0;" edge="1" parent="1" target="XTlqyo5tHkv6LKNm7WAt-61">
          <mxGeometry width="50" height="50" relative="1" as="geometry">
            <mxPoint x="1050" y="161" as="sourcePoint" />
            <mxPoint x="1347" y="159" as="targetPoint" />
          </mxGeometry>
        </mxCell>
        <mxCell id="XTlqyo5tHkv6LKNm7WAt-66" value="imc-send-ver6" style="rounded=1;whiteSpace=wrap;html=1;" vertex="1" parent="1">
          <mxGeometry x="1310" y="215" width="210" height="65" as="geometry" />
        </mxCell>
        <mxCell id="XTlqyo5tHkv6LKNm7WAt-67" value="" style="endArrow=classic;html=1;rounded=0;exitX=1;exitY=0.5;exitDx=0;exitDy=0;entryX=0;entryY=0.5;entryDx=0;entryDy=0;" edge="1" parent="1" source="XTlqyo5tHkv6LKNm7WAt-58" target="XTlqyo5tHkv6LKNm7WAt-66">
          <mxGeometry width="50" height="50" relative="1" as="geometry">
            <mxPoint x="1060" y="171" as="sourcePoint" />
            <mxPoint x="1320" y="172" as="targetPoint" />
          </mxGeometry>
        </mxCell>
        <mxCell id="XTlqyo5tHkv6LKNm7WAt-68" value="/app/logstash-5.1.2/humuson/imc-send.conf" style="text;html=1;align=center;verticalAlign=middle;whiteSpace=wrap;rounded=0;" vertex="1" parent="1">
          <mxGeometry x="780" y="194" width="310" height="30" as="geometry" />
        </mxCell>
        <mxCell id="XTlqyo5tHkv6LKNm7WAt-69" value="" style="rounded=1;whiteSpace=wrap;html=1;fillColor=#d5e8d4;strokeColor=#82b366;" vertex="1" parent="1">
          <mxGeometry x="1750" y="99" width="300" height="241" as="geometry" />
        </mxCell>
        <mxCell id="XTlqyo5tHkv6LKNm7WAt-70" value="&lt;font style=&quot;font-size: 18px;&quot;&gt;tma-trk&lt;/font&gt;" style="text;html=1;align=center;verticalAlign=middle;whiteSpace=wrap;rounded=0;" vertex="1" parent="1">
          <mxGeometry x="1835" y="60" width="140" height="35" as="geometry" />
        </mxCell>
        <mxCell id="XTlqyo5tHkv6LKNm7WAt-71" value="imc-send-ver5 consumer&lt;div&gt;(Concurrency 20)&lt;/div&gt;" style="rounded=1;whiteSpace=wrap;html=1;" vertex="1" parent="1">
          <mxGeometry x="1800" y="149.5" width="210" height="65" as="geometry" />
        </mxCell>
        <mxCell id="XTlqyo5tHkv6LKNm7WAt-72" value="imc-send-ver6 consumer&lt;div&gt;(Concurrency 20)&lt;/div&gt;" style="rounded=1;whiteSpace=wrap;html=1;" vertex="1" parent="1">
          <mxGeometry x="1800" y="232" width="210" height="65" as="geometry" />
        </mxCell>
        <mxCell id="XTlqyo5tHkv6LKNm7WAt-73" value="&lt;font style=&quot;font-size: 18px;&quot;&gt;...&amp;nbsp;&lt;/font&gt;" style="text;html=1;align=center;verticalAlign=middle;whiteSpace=wrap;rounded=0;" vertex="1" parent="1">
          <mxGeometry x="1835" y="102.5" width="140" height="35" as="geometry" />
        </mxCell>
        <mxCell id="XTlqyo5tHkv6LKNm7WAt-74" value="" style="edgeStyle=segmentEdgeStyle;endArrow=classic;html=1;curved=0;rounded=0;endSize=8;startSize=8;entryX=0.5;entryY=1;entryDx=0;entryDy=0;exitX=0.5;exitY=1;exitDx=0;exitDy=0;" edge="1" parent="1" source="XTlqyo5tHkv6LKNm7WAt-72" target="XTlqyo5tHkv6LKNm7WAt-48">
          <mxGeometry width="50" height="50" relative="1" as="geometry">
            <mxPoint x="1689.4117647058824" y="420" as="sourcePoint" />
            <mxPoint x="450" y="320" as="targetPoint" />
            <Array as="points">
              <mxPoint x="1905" y="420" />
              <mxPoint x="485" y="420" />
            </Array>
          </mxGeometry>
        </mxCell>
        <mxCell id="XTlqyo5tHkv6LKNm7WAt-75" value="&lt;font style=&quot;font-size: 14px;&quot;&gt;DELETE data&lt;/font&gt;" style="text;html=1;align=center;verticalAlign=middle;whiteSpace=wrap;rounded=0;" vertex="1" parent="1">
          <mxGeometry x="415" y="370" width="140" height="30" as="geometry" />
        </mxCell>
        <mxCell id="XTlqyo5tHkv6LKNm7WAt-76" value="" style="endArrow=classic;html=1;rounded=0;exitX=1;exitY=0.5;exitDx=0;exitDy=0;exitPerimeter=0;entryX=0;entryY=0.5;entryDx=0;entryDy=0;" edge="1" parent="1" target="XTlqyo5tHkv6LKNm7WAt-71">
          <mxGeometry width="50" height="50" relative="1" as="geometry">
            <mxPoint x="1520" y="159.41" as="sourcePoint" />
            <mxPoint x="1780" y="160.41" as="targetPoint" />
          </mxGeometry>
        </mxCell>
        <mxCell id="XTlqyo5tHkv6LKNm7WAt-77" value="" style="endArrow=classic;html=1;rounded=0;exitX=1;exitY=0.5;exitDx=0;exitDy=0;exitPerimeter=0;entryX=0;entryY=0.5;entryDx=0;entryDy=0;" edge="1" parent="1" target="XTlqyo5tHkv6LKNm7WAt-72">
          <mxGeometry width="50" height="50" relative="1" as="geometry">
            <mxPoint x="1520" y="246.91" as="sourcePoint" />
            <mxPoint x="1780" y="247.91" as="targetPoint" />
          </mxGeometry>
        </mxCell>
        <mxCell id="XTlqyo5tHkv6LKNm7WAt-78" value="&lt;span style=&quot;color: rgb(0, 0, 0); font-family: Helvetica; font-style: normal; font-variant-ligatures: normal; font-variant-caps: normal; font-weight: 400; letter-spacing: normal; orphans: 2; text-align: center; text-indent: 0px; text-transform: none; widows: 2; word-spacing: 0px; -webkit-text-stroke-width: 0px; white-space: normal; background-color: rgb(251, 251, 251); text-decoration-thickness: initial; text-decoration-style: initial; text-decoration-color: initial; float: none; display: inline !important;&quot;&gt;&lt;font style=&quot;font-size: 10px;&quot;&gt;processImcFtSend(String message)&amp;nbsp;&lt;/font&gt;&lt;/span&gt;" style="text;html=1;align=center;verticalAlign=middle;whiteSpace=wrap;rounded=0;" vertex="1" parent="1">
          <mxGeometry x="1560" y="140" width="210" height="30" as="geometry" />
        </mxCell>
        <mxCell id="XTlqyo5tHkv6LKNm7WAt-79" value="&lt;span style=&quot;color: rgb(0, 0, 0); font-family: Helvetica; font-style: normal; font-variant-ligatures: normal; font-variant-caps: normal; font-weight: 400; letter-spacing: normal; orphans: 2; text-align: center; text-indent: 0px; text-transform: none; widows: 2; word-spacing: 0px; -webkit-text-stroke-width: 0px; white-space: normal; background-color: rgb(251, 251, 251); text-decoration-thickness: initial; text-decoration-style: initial; text-decoration-color: initial; float: none; display: inline !important;&quot;&gt;&lt;font style=&quot;font-size: 10px;&quot;&gt;processImcAtSend(String message)&amp;nbsp;&lt;/font&gt;&lt;/span&gt;" style="text;html=1;align=center;verticalAlign=middle;whiteSpace=wrap;rounded=0;" vertex="1" parent="1">
          <mxGeometry x="1560" y="224" width="210" height="30" as="geometry" />
        </mxCell>
        <mxCell id="XTlqyo5tHkv6LKNm7WAt-80" value="&lt;h3&gt;&lt;span style=&quot;color: rgb(0, 0, 0); font-family: Helvetica; font-style: normal; font-variant-ligatures: normal; font-variant-caps: normal; font-weight: 400; letter-spacing: normal; orphans: 2; text-align: center; text-indent: 0px; text-transform: none; widows: 2; word-spacing: 0px; -webkit-text-stroke-width: 0px; white-space: normal; background-color: rgb(251, 251, 251); text-decoration-thickness: initial; text-decoration-style: initial; text-decoration-color: initial; float: none; display: inline !important;&quot;&gt;&lt;font style=&quot;font-size: 18px;&quot;&gt;Maria DB&lt;/font&gt;&lt;/span&gt;&lt;/h3&gt;" style="text;html=1;align=center;verticalAlign=middle;whiteSpace=wrap;rounded=0;" vertex="1" parent="1">
          <mxGeometry x="2310" y="64" width="140" height="35" as="geometry" />
        </mxCell>
        <mxCell id="XTlqyo5tHkv6LKNm7WAt-81" value="" style="rounded=1;whiteSpace=wrap;html=1;fillColor=#dae8fc;strokeColor=#6c8ebf;" vertex="1" parent="1">
          <mxGeometry x="2240" y="97" width="290" height="245" as="geometry" />
        </mxCell>
        <mxCell id="XTlqyo5tHkv6LKNm7WAt-82" value="PROGRMA_MA_SCHD&lt;div&gt;PROGRMA_MA_SCHD_CHANNEL&lt;/div&gt;&lt;div&gt;PROGRAM_MA_TARGET_LIST&lt;/div&gt;" style="shape=cylinder3;whiteSpace=wrap;html=1;boundedLbl=1;backgroundOutline=1;size=15;" vertex="1" parent="1">
          <mxGeometry x="2281" y="137.5" width="200" height="130" as="geometry" />
        </mxCell>
        <mxCell id="XTlqyo5tHkv6LKNm7WAt-83" value="" style="endArrow=classic;html=1;rounded=0;exitX=1;exitY=0.5;exitDx=0;exitDy=0;entryX=0;entryY=0.5;entryDx=0;entryDy=0;entryPerimeter=0;" edge="1" parent="1" source="XTlqyo5tHkv6LKNm7WAt-71" target="XTlqyo5tHkv6LKNm7WAt-82">
          <mxGeometry width="50" height="50" relative="1" as="geometry">
            <mxPoint x="2009.0000000000005" y="174" as="sourcePoint" />
            <mxPoint x="2289.0000000000005" y="182.01999999999998" as="targetPoint" />
          </mxGeometry>
        </mxCell>
        <mxCell id="XTlqyo5tHkv6LKNm7WAt-84" value="" style="endArrow=classic;html=1;rounded=0;exitX=1;exitY=0.5;exitDx=0;exitDy=0;entryX=0;entryY=0.5;entryDx=0;entryDy=0;entryPerimeter=0;" edge="1" parent="1" target="XTlqyo5tHkv6LKNm7WAt-82">
          <mxGeometry width="50" height="50" relative="1" as="geometry">
            <mxPoint x="2010.0000000000005" y="264.75" as="sourcePoint" />
            <mxPoint x="2291" y="213.25" as="targetPoint" />
          </mxGeometry>
        </mxCell>
        <mxCell id="XTlqyo5tHkv6LKNm7WAt-85" value="UPDATE&amp;nbsp;&lt;div&gt;INSERT&lt;/div&gt;" style="text;html=1;align=center;verticalAlign=middle;whiteSpace=wrap;rounded=0;" vertex="1" parent="1">
          <mxGeometry x="2170" y="164" width="120" height="30" as="geometry" />
        </mxCell>
        <mxCell id="XTlqyo5tHkv6LKNm7WAt-86" value="&lt;h3&gt;&lt;span style=&quot;font-size: 18px; font-weight: 400;&quot;&gt;Redis&lt;/span&gt;&lt;/h3&gt;" style="text;html=1;align=center;verticalAlign=middle;whiteSpace=wrap;rounded=0;" vertex="1" parent="1">
          <mxGeometry x="2310" y="350" width="140" height="35" as="geometry" />
        </mxCell>
        <mxCell id="XTlqyo5tHkv6LKNm7WAt-87" value="" style="rounded=1;whiteSpace=wrap;html=1;fillColor=#f8cecc;strokeColor=#b85450;" vertex="1" parent="1">
          <mxGeometry x="2240" y="383" width="290" height="245" as="geometry" />
        </mxCell>
        <mxCell id="XTlqyo5tHkv6LKNm7WAt-88" value="&lt;div&gt;frequency:&lt;span style=&quot;background-color: transparent; color: light-dark(rgb(0, 0, 0), rgb(255, 255, 255));&quot;&gt;{siteSeq}:{date}:{userid}&lt;/span&gt;&lt;/div&gt;&lt;div&gt;frequency_log:{siteSeq}:{date}:{userid}&lt;/div&gt;" style="shape=cylinder3;whiteSpace=wrap;html=1;boundedLbl=1;backgroundOutline=1;size=15;" vertex="1" parent="1">
          <mxGeometry x="2280.25" y="420" width="209.5" height="130" as="geometry" />
        </mxCell>
        <mxCell id="XTlqyo5tHkv6LKNm7WAt-89" value="" style="endArrow=classic;html=1;rounded=0;exitX=1;exitY=0.5;exitDx=0;exitDy=0;entryX=0;entryY=0.5;entryDx=0;entryDy=0;entryPerimeter=0;" edge="1" parent="1" source="XTlqyo5tHkv6LKNm7WAt-71" target="XTlqyo5tHkv6LKNm7WAt-88">
          <mxGeometry width="50" height="50" relative="1" as="geometry">
            <mxPoint x="2020" y="192" as="sourcePoint" />
            <mxPoint x="2291" y="213" as="targetPoint" />
          </mxGeometry>
        </mxCell>
        <mxCell id="XTlqyo5tHkv6LKNm7WAt-90" value="&lt;font style=&quot;font-size: 13px;&quot;&gt;if an error occurs while sending,&amp;nbsp;&amp;nbsp;&lt;/font&gt;&lt;div&gt;&lt;font style=&quot;font-size: 13px;&quot;&gt;decrease the frequency&lt;/font&gt;&lt;/div&gt;" style="text;html=1;align=center;verticalAlign=middle;whiteSpace=wrap;rounded=0;" vertex="1" parent="1">
          <mxGeometry x="2050" y="370" width="220" height="30" as="geometry" />
        </mxCell>
        <mxCell id="XTlqyo5tHkv6LKNm7WAt-127" value="" style="rounded=1;whiteSpace=wrap;html=1;" vertex="1" parent="1">
          <mxGeometry x="800" y="779" width="310" height="241" as="geometry" />
        </mxCell>
        <mxCell id="XTlqyo5tHkv6LKNm7WAt-128" value="" style="rounded=1;whiteSpace=wrap;html=1;" vertex="1" parent="1">
          <mxGeometry x="830" y="795" width="250" height="185" as="geometry" />
        </mxCell>
        <mxCell id="XTlqyo5tHkv6LKNm7WAt-129" value="" style="rounded=1;whiteSpace=wrap;html=1;" vertex="1" parent="1">
          <mxGeometry x="60" y="775" width="570" height="245" as="geometry" />
        </mxCell>
        <mxCell id="XTlqyo5tHkv6LKNm7WAt-130" value="" style="rounded=1;whiteSpace=wrap;html=1;" vertex="1" parent="1">
          <mxGeometry x="80" y="790" width="250" height="200" as="geometry" />
        </mxCell>
        <mxCell id="XTlqyo5tHkv6LKNm7WAt-131" value="&lt;h3&gt;&lt;span style=&quot;color: rgb(0, 0, 0); font-family: Helvetica; font-style: normal; font-variant-ligatures: normal; font-variant-caps: normal; font-weight: 400; letter-spacing: normal; orphans: 2; text-align: center; text-indent: 0px; text-transform: none; widows: 2; word-spacing: 0px; -webkit-text-stroke-width: 0px; white-space: normal; background-color: rgb(251, 251, 251); text-decoration-thickness: initial; text-decoration-style: initial; text-decoration-color: initial; float: none; display: inline !important;&quot;&gt;&lt;font style=&quot;font-size: 18px;&quot;&gt;Maria DB&lt;/font&gt;&lt;/span&gt;&lt;/h3&gt;" style="text;html=1;align=center;verticalAlign=middle;whiteSpace=wrap;rounded=0;" vertex="1" parent="1">
          <mxGeometry x="275" y="740" width="140" height="35" as="geometry" />
        </mxCell>
        <mxCell id="XTlqyo5tHkv6LKNm7WAt-132" value="&lt;br style=&quot;forced-color-adjust: none; color: rgb(0, 0, 0); font-family: Helvetica; font-size: 12px; font-style: normal; font-variant-ligatures: normal; font-variant-caps: normal; font-weight: 400; letter-spacing: normal; orphans: 2; text-align: center; text-indent: 0px; text-transform: none; widows: 2; word-spacing: 0px; -webkit-text-stroke-width: 0px; white-space: normal; background-color: rgb(251, 251, 251); text-decoration-thickness: initial; text-decoration-style: initial; text-decoration-color: initial;&quot;&gt;&lt;div style=&quot;forced-color-adjust: none; color: rgb(0, 0, 0); font-family: Helvetica; font-size: 12px; font-style: normal; font-variant-ligatures: normal; font-variant-caps: normal; font-weight: 400; letter-spacing: normal; orphans: 2; text-align: center; text-indent: 0px; text-transform: none; widows: 2; word-spacing: 0px; -webkit-text-stroke-width: 0px; white-space: normal; background-color: rgb(251, 251, 251); text-decoration-thickness: initial; text-decoration-style: initial; text-decoration-color: initial;&quot;&gt;imc.IMC_FT_BIZ_MSG_LOG&lt;/div&gt;&lt;div style=&quot;forced-color-adjust: none; color: rgb(0, 0, 0); font-family: Helvetica; font-size: 12px; font-style: normal; font-variant-ligatures: normal; font-variant-caps: normal; font-weight: 400; letter-spacing: normal; orphans: 2; text-align: center; text-indent: 0px; text-transform: none; widows: 2; word-spacing: 0px; -webkit-text-stroke-width: 0px; white-space: normal; background-color: rgb(251, 251, 251); text-decoration-thickness: initial; text-decoration-style: initial; text-decoration-color: initial;&quot;&gt;imc.IMC_AT_BIZ_MSG_LOG&lt;/div&gt;" style="rounded=1;whiteSpace=wrap;html=1;" vertex="1" parent="1">
          <mxGeometry x="100" y="900" width="210" height="60" as="geometry" />
        </mxCell>
        <mxCell id="XTlqyo5tHkv6LKNm7WAt-133" value="&lt;span style=&quot;color: rgb(0, 0, 0); font-family: Helvetica; font-size: 12px; font-style: normal; font-variant-ligatures: normal; font-variant-caps: normal; font-weight: 400; letter-spacing: normal; orphans: 2; text-align: center; text-indent: 0px; text-transform: none; widows: 2; word-spacing: 0px; -webkit-text-stroke-width: 0px; white-space: normal; background-color: rgb(251, 251, 251); text-decoration-thickness: initial; text-decoration-style: initial; text-decoration-color: initial; float: none; display: inline !important;&quot;&gt;imc.IMC_FT_BIZ_MSG&lt;/span&gt;&lt;div&gt;&lt;span style=&quot;color: rgb(0, 0, 0); font-family: Helvetica; font-size: 12px; font-style: normal; font-variant-ligatures: normal; font-variant-caps: normal; font-weight: 400; letter-spacing: normal; orphans: 2; text-align: center; text-indent: 0px; text-transform: none; widows: 2; word-spacing: 0px; -webkit-text-stroke-width: 0px; white-space: normal; background-color: rgb(251, 251, 251); text-decoration-thickness: initial; text-decoration-style: initial; text-decoration-color: initial; float: none; display: inline !important;&quot;&gt;imc.IMC_AT_BIZ_MSG&lt;/span&gt;&lt;/div&gt;" style="rounded=1;whiteSpace=wrap;html=1;" vertex="1" parent="1">
          <mxGeometry x="100" y="810" width="210" height="60" as="geometry" />
        </mxCell>
        <mxCell id="XTlqyo5tHkv6LKNm7WAt-134" value="" style="endArrow=classic;html=1;rounded=0;exitX=0.5;exitY=1;exitDx=0;exitDy=0;entryX=0.5;entryY=0;entryDx=0;entryDy=0;" edge="1" parent="1" source="XTlqyo5tHkv6LKNm7WAt-133" target="XTlqyo5tHkv6LKNm7WAt-132">
          <mxGeometry width="50" height="50" relative="1" as="geometry">
            <mxPoint x="410" y="1020" as="sourcePoint" />
            <mxPoint x="460" y="970" as="targetPoint" />
          </mxGeometry>
        </mxCell>
        <mxCell id="XTlqyo5tHkv6LKNm7WAt-135" value="&lt;font style=&quot;font-size: 12px;&quot;&gt;IMC_AGENT&lt;/font&gt;" style="text;strokeColor=none;fillColor=none;html=1;fontSize=24;fontStyle=1;verticalAlign=middle;align=center;" vertex="1" parent="1">
          <mxGeometry x="155" y="780" width="100" height="30" as="geometry" />
        </mxCell>
        <mxCell id="XTlqyo5tHkv6LKNm7WAt-136" value="&lt;span style=&quot;font-size: 18px;&quot;&gt;Kafka Source Connect&lt;/span&gt;" style="text;html=1;align=center;verticalAlign=middle;whiteSpace=wrap;rounded=0;" vertex="1" parent="1">
          <mxGeometry x="827" y="740" width="245" height="35" as="geometry" />
        </mxCell>
        <mxCell id="XTlqyo5tHkv6LKNm7WAt-137" value="&lt;h1 style=&quot;margin: 0px; padding: 0px; box-sizing: border-box; display: flex; align-items: center; justify-content: flex-start; font-size: var(--ui-fontSizes-300); line-height: 1.5; flex-grow: 1; color: rgb(236, 238, 236); font-weight: var(--ui-fontWeights-bold); font-family: Geist, -apple-system, &amp;quot;system-ui&amp;quot;, &amp;quot;San Francisco&amp;quot;, &amp;quot;Segoe UI&amp;quot;, Roboto, &amp;quot;Helvetica Neue&amp;quot;, sans-serif; text-align: start; background-color: rgb(23, 24, 22);&quot; class=&quot;ui-c-gqwkJN ui-c-iEkvVg&quot;&gt;&lt;span style=&quot;color: rgb(0, 0, 0); font-family: Helvetica; text-align: center; background-color: rgb(251, 251, 251);&quot;&gt;imcFtBizMsgLog_sourceConnector&lt;/span&gt;&lt;/h1&gt;" style="rounded=1;whiteSpace=wrap;html=1;" vertex="1" parent="1">
          <mxGeometry x="850" y="815" width="210" height="55" as="geometry" />
        </mxCell>
        <mxCell id="XTlqyo5tHkv6LKNm7WAt-138" value="" style="rounded=1;whiteSpace=wrap;html=1;" vertex="1" parent="1">
          <mxGeometry x="1270" y="780" width="310" height="245" as="geometry" />
        </mxCell>
        <mxCell id="XTlqyo5tHkv6LKNm7WAt-139" value="&lt;font style=&quot;font-size: 18px;&quot;&gt;Kafka(29,30,31)&lt;/font&gt;" style="text;html=1;align=center;verticalAlign=middle;whiteSpace=wrap;rounded=0;" vertex="1" parent="1">
          <mxGeometry x="1355" y="740" width="140" height="35" as="geometry" />
        </mxCell>
        <mxCell id="XTlqyo5tHkv6LKNm7WAt-140" value="imc.IMC_FT_BIZ_MSG_LOG" style="rounded=1;whiteSpace=wrap;html=1;" vertex="1" parent="1">
          <mxGeometry x="1320" y="809" width="210" height="65" as="geometry" />
        </mxCell>
        <mxCell id="XTlqyo5tHkv6LKNm7WAt-141" value="Topic" style="text;html=1;align=center;verticalAlign=middle;whiteSpace=wrap;rounded=0;" vertex="1" parent="1">
          <mxGeometry x="1395" y="785" width="60" height="30" as="geometry" />
        </mxCell>
        <mxCell id="XTlqyo5tHkv6LKNm7WAt-142" value="" style="endArrow=classic;html=1;rounded=0;exitX=1;exitY=0.5;exitDx=0;exitDy=0;entryX=0;entryY=0.5;entryDx=0;entryDy=0;" edge="1" parent="1" source="XTlqyo5tHkv6LKNm7WAt-132" target="XTlqyo5tHkv6LKNm7WAt-137">
          <mxGeometry width="50" height="50" relative="1" as="geometry">
            <mxPoint x="553" y="845" as="sourcePoint" />
            <mxPoint x="1030" y="930" as="targetPoint" />
          </mxGeometry>
        </mxCell>
        <mxCell id="XTlqyo5tHkv6LKNm7WAt-143" value="" style="endArrow=classic;html=1;rounded=0;exitX=1;exitY=0.5;exitDx=0;exitDy=0;exitPerimeter=0;entryX=0;entryY=0.5;entryDx=0;entryDy=0;" edge="1" parent="1" target="XTlqyo5tHkv6LKNm7WAt-140">
          <mxGeometry width="50" height="50" relative="1" as="geometry">
            <mxPoint x="1060" y="841" as="sourcePoint" />
            <mxPoint x="1357" y="839" as="targetPoint" />
          </mxGeometry>
        </mxCell>
        <mxCell id="XTlqyo5tHkv6LKNm7WAt-144" value="imc.IMC_AT_BIZ_MSG_LOG" style="rounded=1;whiteSpace=wrap;html=1;" vertex="1" parent="1">
          <mxGeometry x="1320" y="886.5" width="210" height="65" as="geometry" />
        </mxCell>
        <mxCell id="XTlqyo5tHkv6LKNm7WAt-145" value="" style="endArrow=classic;html=1;rounded=0;exitX=1;exitY=0.5;exitDx=0;exitDy=0;entryX=0;entryY=0.5;entryDx=0;entryDy=0;" edge="1" parent="1" source="XTlqyo5tHkv6LKNm7WAt-160" target="XTlqyo5tHkv6LKNm7WAt-144">
          <mxGeometry width="50" height="50" relative="1" as="geometry">
            <mxPoint x="1070" y="851" as="sourcePoint" />
            <mxPoint x="1330" y="852" as="targetPoint" />
          </mxGeometry>
        </mxCell>
        <mxCell id="XTlqyo5tHkv6LKNm7WAt-146" value="" style="rounded=1;whiteSpace=wrap;html=1;" vertex="1" parent="1">
          <mxGeometry x="1760" y="779" width="300" height="241" as="geometry" />
        </mxCell>
        <mxCell id="XTlqyo5tHkv6LKNm7WAt-147" value="&lt;font style=&quot;font-size: 18px;&quot;&gt;tma-imc-trk&lt;/font&gt;" style="text;html=1;align=center;verticalAlign=middle;whiteSpace=wrap;rounded=0;" vertex="1" parent="1">
          <mxGeometry x="1845" y="740" width="140" height="35" as="geometry" />
        </mxCell>
        <mxCell id="XTlqyo5tHkv6LKNm7WAt-148" value="imc.IMC_FT_BIZ_MSG_LOG&amp;nbsp;&lt;div&gt;consumer&lt;span style=&quot;background-color: transparent; color: light-dark(rgb(0, 0, 0), rgb(255, 255, 255));&quot;&gt;(Concurrency 20)&lt;/span&gt;&lt;/div&gt;" style="rounded=1;whiteSpace=wrap;html=1;" vertex="1" parent="1">
          <mxGeometry x="1810" y="807.5" width="210" height="65" as="geometry" />
        </mxCell>
        <mxCell id="XTlqyo5tHkv6LKNm7WAt-149" value="imc.IMC_AT_BIZ_MSG_LOG&amp;nbsp;&lt;div&gt;consumer&amp;nbsp;&lt;span style=&quot;background-color: transparent; color: light-dark(rgb(0, 0, 0), rgb(255, 255, 255));&quot;&gt;(Concurrency 20)&lt;/span&gt;&lt;/div&gt;" style="rounded=1;whiteSpace=wrap;html=1;" vertex="1" parent="1">
          <mxGeometry x="1810" y="897" width="210" height="65" as="geometry" />
        </mxCell>
        <mxCell id="XTlqyo5tHkv6LKNm7WAt-150" value="" style="endArrow=classic;html=1;rounded=0;exitX=1;exitY=0.5;exitDx=0;exitDy=0;exitPerimeter=0;entryX=0;entryY=0.5;entryDx=0;entryDy=0;" edge="1" parent="1" target="XTlqyo5tHkv6LKNm7WAt-148">
          <mxGeometry width="50" height="50" relative="1" as="geometry">
            <mxPoint x="1530" y="839.41" as="sourcePoint" />
            <mxPoint x="1790" y="840.41" as="targetPoint" />
          </mxGeometry>
        </mxCell>
        <mxCell id="XTlqyo5tHkv6LKNm7WAt-151" value="" style="endArrow=classic;html=1;rounded=0;exitX=1;exitY=0.5;exitDx=0;exitDy=0;exitPerimeter=0;entryX=0;entryY=0.5;entryDx=0;entryDy=0;" edge="1" parent="1" target="XTlqyo5tHkv6LKNm7WAt-149">
          <mxGeometry width="50" height="50" relative="1" as="geometry">
            <mxPoint x="1530" y="926.91" as="sourcePoint" />
            <mxPoint x="1790" y="927.91" as="targetPoint" />
          </mxGeometry>
        </mxCell>
        <mxCell id="XTlqyo5tHkv6LKNm7WAt-152" value="&lt;span style=&quot;color: rgb(0, 0, 0); font-family: Helvetica; font-style: normal; font-variant-ligatures: normal; font-variant-caps: normal; font-weight: 400; letter-spacing: normal; orphans: 2; text-align: center; text-indent: 0px; text-transform: none; widows: 2; word-spacing: 0px; -webkit-text-stroke-width: 0px; white-space: normal; background-color: rgb(251, 251, 251); text-decoration-thickness: initial; text-decoration-style: initial; text-decoration-color: initial; float: none; display: inline !important;&quot;&gt;&lt;font style=&quot;font-size: 10px;&quot;&gt;processImcSned(List&amp;lt;String&amp;gt; message)&lt;/font&gt;&lt;/span&gt;&lt;div&gt;&lt;span style=&quot;color: rgb(0, 0, 0); font-family: Helvetica; font-style: normal; font-variant-ligatures: normal; font-variant-caps: normal; font-weight: 400; letter-spacing: normal; orphans: 2; text-align: center; text-indent: 0px; text-transform: none; widows: 2; word-spacing: 0px; -webkit-text-stroke-width: 0px; white-space: normal; background-color: rgb(251, 251, 251); text-decoration-thickness: initial; text-decoration-style: initial; text-decoration-color: initial; float: none; display: inline !important;&quot;&gt;&lt;font style=&quot;font-size: 10px;&quot;&gt;Poll 500 messages&amp;nbsp;&lt;/font&gt;&lt;/span&gt;&lt;/div&gt;" style="text;html=1;align=center;verticalAlign=middle;whiteSpace=wrap;rounded=0;" vertex="1" parent="1">
          <mxGeometry x="1570" y="820" width="210" height="30" as="geometry" />
        </mxCell>
        <mxCell id="XTlqyo5tHkv6LKNm7WAt-153" value="&lt;span style=&quot;color: rgb(0, 0, 0); font-family: Helvetica; font-style: normal; font-variant-ligatures: normal; font-variant-caps: normal; font-weight: 400; letter-spacing: normal; orphans: 2; text-align: center; text-indent: 0px; text-transform: none; widows: 2; word-spacing: 0px; -webkit-text-stroke-width: 0px; white-space: normal; background-color: rgb(251, 251, 251); text-decoration-thickness: initial; text-decoration-style: initial; text-decoration-color: initial; float: none; display: inline !important;&quot;&gt;&lt;font style=&quot;font-size: 10px;&quot;&gt;processImcSend(List&amp;lt;String&amp;gt; message)&lt;br&gt;&lt;/font&gt;&lt;/span&gt;&lt;div&gt;&lt;span style=&quot;color: rgb(0, 0, 0); font-family: Helvetica; font-style: normal; font-variant-ligatures: normal; font-variant-caps: normal; font-weight: 400; letter-spacing: normal; orphans: 2; text-align: center; text-indent: 0px; text-transform: none; widows: 2; word-spacing: 0px; -webkit-text-stroke-width: 0px; white-space: normal; background-color: rgb(251, 251, 251); text-decoration-thickness: initial; text-decoration-style: initial; text-decoration-color: initial; float: none; display: inline !important;&quot;&gt;&lt;font style=&quot;font-size: 10px;&quot;&gt;&lt;span style=&quot;background-color: transparent; color: light-dark(rgb(0, 0, 0), rgb(255, 255, 255));&quot;&gt;Poll 500 messages&lt;/span&gt;&amp;nbsp;&lt;/font&gt;&lt;/span&gt;&lt;/div&gt;" style="text;html=1;align=center;verticalAlign=middle;whiteSpace=wrap;rounded=0;" vertex="1" parent="1">
          <mxGeometry x="1570" y="904" width="210" height="30" as="geometry" />
        </mxCell>
        <mxCell id="XTlqyo5tHkv6LKNm7WAt-154" value="&lt;h3&gt;&lt;span style=&quot;color: rgb(0, 0, 0); font-family: Helvetica; font-style: normal; font-variant-ligatures: normal; font-variant-caps: normal; font-weight: 400; letter-spacing: normal; orphans: 2; text-align: center; text-indent: 0px; text-transform: none; widows: 2; word-spacing: 0px; -webkit-text-stroke-width: 0px; white-space: normal; background-color: rgb(251, 251, 251); text-decoration-thickness: initial; text-decoration-style: initial; text-decoration-color: initial; float: none; display: inline !important;&quot;&gt;&lt;font style=&quot;font-size: 18px;&quot;&gt;Maria DB&lt;/font&gt;&lt;/span&gt;&lt;/h3&gt;" style="text;html=1;align=center;verticalAlign=middle;whiteSpace=wrap;rounded=0;" vertex="1" parent="1">
          <mxGeometry x="2320" y="744" width="140" height="35" as="geometry" />
        </mxCell>
        <mxCell id="XTlqyo5tHkv6LKNm7WAt-155" value="" style="rounded=1;whiteSpace=wrap;html=1;" vertex="1" parent="1">
          <mxGeometry x="2250" y="777" width="290" height="245" as="geometry" />
        </mxCell>
        <mxCell id="XTlqyo5tHkv6LKNm7WAt-156" value="PROGRMA_MA_SCHD&lt;div&gt;PROGRMA_MA_SCHD_CHANNEL&lt;/div&gt;&lt;div&gt;PROGRAM_MA_TARGET_LIST&lt;/div&gt;" style="shape=cylinder3;whiteSpace=wrap;html=1;boundedLbl=1;backgroundOutline=1;size=15;" vertex="1" parent="1">
          <mxGeometry x="2291" y="817.5" width="200" height="130" as="geometry" />
        </mxCell>
        <mxCell id="XTlqyo5tHkv6LKNm7WAt-157" value="" style="endArrow=classic;html=1;rounded=0;exitX=1;exitY=0.5;exitDx=0;exitDy=0;entryX=0;entryY=0.5;entryDx=0;entryDy=0;entryPerimeter=0;" edge="1" parent="1" source="XTlqyo5tHkv6LKNm7WAt-148" target="XTlqyo5tHkv6LKNm7WAt-156">
          <mxGeometry width="50" height="50" relative="1" as="geometry">
            <mxPoint x="2019.0000000000005" y="854" as="sourcePoint" />
            <mxPoint x="2299.0000000000005" y="862.02" as="targetPoint" />
          </mxGeometry>
        </mxCell>
        <mxCell id="XTlqyo5tHkv6LKNm7WAt-158" value="" style="endArrow=classic;html=1;rounded=0;exitX=1;exitY=0.5;exitDx=0;exitDy=0;entryX=0;entryY=0.5;entryDx=0;entryDy=0;entryPerimeter=0;" edge="1" parent="1" target="XTlqyo5tHkv6LKNm7WAt-156">
          <mxGeometry width="50" height="50" relative="1" as="geometry">
            <mxPoint x="2020.0000000000005" y="944.75" as="sourcePoint" />
            <mxPoint x="2301" y="893.25" as="targetPoint" />
          </mxGeometry>
        </mxCell>
        <mxCell id="XTlqyo5tHkv6LKNm7WAt-159" value="Batch UPDATE&amp;nbsp;&lt;div&gt;Batch INSERT&lt;/div&gt;" style="text;html=1;align=center;verticalAlign=middle;whiteSpace=wrap;rounded=0;" vertex="1" parent="1">
          <mxGeometry x="2100" y="867" width="120" height="30" as="geometry" />
        </mxCell>
        <mxCell id="XTlqyo5tHkv6LKNm7WAt-160" value="imcAtBizMsgLog_sourceConnector" style="rounded=1;whiteSpace=wrap;html=1;" vertex="1" parent="1">
          <mxGeometry x="850" y="891.5" width="210" height="55" as="geometry" />
        </mxCell>
        <mxCell id="XTlqyo5tHkv6LKNm7WAt-161" value="" style="endArrow=classic;html=1;rounded=0;exitX=1;exitY=0.5;exitDx=0;exitDy=0;entryX=0;entryY=0.5;entryDx=0;entryDy=0;" edge="1" parent="1" source="XTlqyo5tHkv6LKNm7WAt-132" target="XTlqyo5tHkv6LKNm7WAt-160">
          <mxGeometry width="50" height="50" relative="1" as="geometry">
            <mxPoint x="320" y="940" as="sourcePoint" />
            <mxPoint x="860" y="867" as="targetPoint" />
          </mxGeometry>
        </mxCell>
        <mxCell id="XTlqyo5tHkv6LKNm7WAt-162" value="&lt;font style=&quot;font-size: 14px;&quot;&gt;tma-connect&lt;/font&gt;" style="text;html=1;align=center;verticalAlign=middle;whiteSpace=wrap;rounded=0;" vertex="1" parent="1">
          <mxGeometry x="897.5" y="773" width="115" height="30" as="geometry" />
        </mxCell>
        <mxCell id="XTlqyo5tHkv6LKNm7WAt-163" value="" style="rounded=1;whiteSpace=wrap;html=1;fillColor=#f8cecc;strokeColor=#b85450;" vertex="1" parent="1">
          <mxGeometry x="2246" y="1070" width="290" height="245" as="geometry" />
        </mxCell>
        <mxCell id="XTlqyo5tHkv6LKNm7WAt-164" value="" style="endArrow=classic;html=1;rounded=0;exitX=1;exitY=0.5;exitDx=0;exitDy=0;entryX=0;entryY=0.5;entryDx=0;entryDy=0;entryPerimeter=0;" edge="1" parent="1" target="XTlqyo5tHkv6LKNm7WAt-166">
          <mxGeometry width="50" height="50" relative="1" as="geometry">
            <mxPoint x="2020" y="840" as="sourcePoint" />
            <mxPoint x="2290" y="1143" as="targetPoint" />
          </mxGeometry>
        </mxCell>
        <mxCell id="XTlqyo5tHkv6LKNm7WAt-165" value="&lt;font style=&quot;font-size: 13px;&quot;&gt;if an error occurs while sending,&amp;nbsp;&amp;nbsp;&lt;/font&gt;&lt;div&gt;&lt;font style=&quot;font-size: 13px;&quot;&gt;decrease the frequency&lt;/font&gt;&lt;/div&gt;" style="text;html=1;align=center;verticalAlign=middle;whiteSpace=wrap;rounded=0;" vertex="1" parent="1">
          <mxGeometry x="2060" y="1028" width="220" height="30" as="geometry" />
        </mxCell>
        <mxCell id="XTlqyo5tHkv6LKNm7WAt-166" value="&lt;div&gt;frequency:&lt;span style=&quot;background-color: transparent; color: light-dark(rgb(0, 0, 0), rgb(255, 255, 255));&quot;&gt;{siteSeq}:{date}:{userid}&lt;/span&gt;&lt;/div&gt;&lt;div&gt;frequency_log:{siteSeq}:{date}:{userid}&lt;/div&gt;" style="shape=cylinder3;whiteSpace=wrap;html=1;boundedLbl=1;backgroundOutline=1;size=15;" vertex="1" parent="1">
          <mxGeometry x="2286.25" y="1120" width="209.5" height="130" as="geometry" />
        </mxCell>
        <mxCell id="XTlqyo5tHkv6LKNm7WAt-167" value="&lt;h3&gt;&lt;span style=&quot;font-size: 18px; font-weight: 400;&quot;&gt;Redis&lt;/span&gt;&lt;/h3&gt;" style="text;html=1;align=center;verticalAlign=middle;whiteSpace=wrap;rounded=0;" vertex="1" parent="1">
          <mxGeometry x="2315" y="1040" width="140" height="35" as="geometry" />
        </mxCell>
      </root>
    </mxGraphModel>
  </diagram>
</mxfile>
